# AST/ASF file generated using VICON BodyLanguage
# -----------------------------------------------
:version 1.10
:name VICON
:units
  mass 1.0
  length 0.45
  angle deg
:documentation
   .ast/.asf automatically generated from VICON data using
   VICON BodyBuilder and BodyLanguage model FoxedUp or BRILLIANT.MOD
:root
   order TX TY TZ RX RY RZ
   axis XYZ
   position 0 0 0  
   orientation 0 0 0 
:bonedata
  begin
     id 1 
     name lhipjoint
     direction 0.653368 -0.678499 0.335782 
     length 2.51848 
     axis 0 0 0  XYZ
  end
  begin
     id 2 
     name lfemur
     direction 0.34202 -0.939693 0  
     length 6.57749  
     axis 0 0 20  XYZ
    dof rx ry rz
    limits (-160.0 20.0)
           (-70.0 70.0)
           (-60.0 70.0)
  end
  begin
     id 3 
     name ltibia
     direction 0.34202 -0.939693 0   
     length 7.94618   
     axis 0 0 20   XYZ
    dof rx
    limits (-10.0 170.0)
  end
  begin
     id 4 
     name lfoot
     direction 0.0811271 -0.222895 0.971461   
     length 2.31339   
     axis -90 7.62852e-016 20   XYZ
    dof rx rz
    limits (-45.0 90.0)
           (-70.0 20.0)
  end
  begin
     id 5 
     name ltoes
     direction 1.53568e-011 -4.21885e-011 1   
     length 1.15935   
     axis -90 7.62852e-016 20   XYZ
    dof rx
    limits (-90.0 20.0)
  end
  begin
     id 6 
     name rhipjoint
     direction -0.640058 -0.688614 0.340788   
     length 2.48149  
     axis 0 0 0  XYZ 
  end
  begin
     id 7 
     name rfemur
     direction -0.34202 -0.939693 0   
     length 6.57875   
     axis 0 0 -20   XYZ
    dof rx ry rz
    limits (-160.0 20.0)
           (-70.0 70.0)
           (-70.0 60.0)
  end
  begin
     id 8 
     name rtibia
     direction -0.34202 -0.939693 0   
     length 7.977   
     axis 0 0 -20   XYZ
    dof rx
    limits (-10.0 170.0)
 end
 begin
     id 9 
     name rfoot
     direction -0.0979793 -0.269196 0.958089   
     length 2.19857  
     axis -90 -7.62852e-016 -20   XYZ
    dof rx rz
    limits (-45.0 90.0)
           (-20.0 70.0)
  end
  begin
     id 10 
     name rtoes
     direction -1.53556e-011 -4.21868e-011 1   
     length 1.09838   
     axis -90 -7.62852e-016 -20   XYZ
    dof rx
    limits (-90.0 20.0)
  end
  begin
     id 11 
     name lowerback
     direction 0.0149039 0.998517 -0.0523597   
     length 2.10809   
     axis 0 0 0   XYZ
    dof rx ry rz
    limits (-20.0 45.0)
           (-30.0 30.0)
           (-30.0 30.0)
  end
  begin
     id 12 
     name upperback
     direction -0.00882659 0.999418 -0.0329624   
     length 2.1102   
     axis 0 0 0   XYZ
    dof rx ry rz
    limits (-20.0 45.0)
           (-30.0 30.0)
           (-30.0 30.0)
  end
  begin
     id 13 
     name thorax
     direction -0.0165585 0.999826 -0.0085833   
     length 2.11039   
     axis 0 0 0   XYZ
    dof rx ry rz
    limits (-20.0 45.0)
           (-30.0 30.0)
           (-30.0 30.0)
  end
  begin
     id 14 
     name lowerneck
     direction -0.0130877 0.999911 0.00260353   
     length 1.73253   
     axis 0 0 0   XYZ
    dof rx ry rz
    limits (-20.0 45.0)
           (-30.0 30.0)
           (-30.0 30.0)
  end
  begin
     id 15 
     name upperneck
     direction -0.0348454 0.928205 -0.370435   
     length 1.66692   
     axis 0 0 0   XYZ
    dof rx ry rz
    limits (-20.0 45.0)
           (-30.0 30.0)
           (-30.0 30.0)
  end
  begin
     id 16
     name head
     direction -0.00807754 0.992494 -0.122026  
     length 1.72765  
     axis 0 0 0   XYZ
    dof rx ry rz
    limits (-20.0 45.0)
           (-30.0 30.0)
           (-30.0 30.0)
  end
  begin
     id 17 
     name lclavicle
     direction 0.987582 0.144023 0.0627671  
     length 3.49235  
     axis 0 0 0   XYZ
    dof ry rz
    limits (-20.0 10.0)
           (0.0 20.0)
  end
  begin
     id 18 
     name lhumerus
     direction 1 -4.48958e-011 -1.45183e-018   
     length 5.41917   
     axis 180 -30 -90   XYZ
    dof rx ry rz
    limits (-60.0 90.0)
           (-90.0 90.0)
           (-90.0 90.0)
  end
  begin
     id 19
     name lradius
     direction 1 -4.48999e-011 5.75106e-027   
     length 2.44373   
     axis 180 -30 -90   XYZ
    dof rx
    limits (-10.0 170.0)
  end
  begin
     id 20
     name lwrist
     direction 1 -4.48987e-011 1.53461e-026   
     length 1.22186   
     axis -1.09697e-014 90 90   XYZ
    dof ry
    limits (-180.0 0.0)
 end
  begin
     id 21 
     name lhand
     direction 1 -4.48881e-011 3.06923e-026   
     length 0.727502   
     axis -1.95843e-014 90 90   XYZ
    dof rx rz
    limits (-90.0 90.0)
           (-45.0 45.0)
  end
  begin
     id 22 
     name lfingers
     direction 1 -4.48907e-011 6.13845e-026   
     length 0.586531   
     axis -3.91686e-014 90 90   XYZ
    dof rx
    limits (0.0 90.0)
  end
  begin
     id 23
     name lthumb
     direction 0.707107 -6.3487e-011 0.707107   
     length 0.842145   
     axis -90 45 2.85299e-015   XYZ
    dof rx rz
    limits (-45.0 45.0)
           (-45.0 45.0)
  end
  begin
     id 24 
     name rclavicle
     direction -0.980998 0.169556 0.0943023   
     length 3.29272  
     axis 0 0 0   XYZ 
    dof ry rz
    limits (-10.0 20.0)
           (-20.0 0.0)
  end
  begin
     id 25 
     name rhumerus
     direction -1 -1.83355e-005 2.45537e-005  
     length 5.58976   
     axis 180 30 90   XYZ
    dof rx ry rz
    limits (-90.0 60.0)
           (-90.0 90.0)
           (-90.0 90.0)
  end
  begin
     id 26 
     name rradius
     direction -1 -4.48967e-011 5.97228e-027   
     length 2.4806   
     axis 180 30 90   XYZ
    dof rx
    limits (-10.0 170.0)
  end
  begin
     id 27 
     name rwrist
     direction -1 -4.48963e-011 1.53461e-026   
     length 1.2403   
     axis -1.09697e-014 -90 -90   XYZ
    dof ry
    limits (-180.0 0.0)
  end
  begin
     id 28
     name rhand
     direction -1 -4.48881e-011 3.06923e-026   
     length 0.816009   
     axis -1.95843e-014 -90 -90   XYZ
    dof rx rz
    limits (-90.0 90.0)
           (-45.0 45.0)
  end
  begin
     id 29
     name rfingers
     direction -1 -4.49018e-011 6.13845e-026   
     length 0.657887   
     axis -3.91686e-014 -90 -90   XYZ
    dof rx
    limits (0.0 90.0)
  end
  begin
     id 30
     name rthumb
     direction -0.707107 -6.34872e-011 0.707107   
     length 0.944599   
     axis -90 -45 -2.85299e-015   XYZ
    dof rx rz
    limits (-45.0 45.0)
           (-45.0 45.0)
  end
:hierarchy
  begin
    root lhipjoint rhipjoint lowerback
    lhipjoint lfemur
    lfemur ltibia
    ltibia lfoot
    lfoot ltoes
    rhipjoint rfemur
    rfemur rtibia
    rtibia rfoot
    rfoot rtoes
    lowerback upperback
    upperback thorax
    thorax lowerneck lclavicle rclavicle
    lowerneck upperneck
    upperneck head
    lclavicle lhumerus
    lhumerus lradius
    lradius lwrist
    lwrist lhand lthumb
    lhand lfingers
    rclavicle rhumerus
    rhumerus rradius
    rradius rwrist
    rwrist rhand rthumb
    rhand rfingers
  end

#!OML:ASF F:\VICON\USERDATA\INSTALL\rory3\rory3.ASF
:FULLY-SPECIFIED
:DEGREES
33
root 3.33892 16.8077 12.4414 23.8424 -45.4575 -2.06287
lowerback -2.92095 -3.04694 -2.93868
upperback -8.60217 -4.26548 0.825739
thorax -7.07729 -1.97068 2.64135
lowerneck -5.81604 -11.1391 -10.2277
upperneck 35.6643 -20.9388 12.2789
head 16.3253 -9.45344 3.3814
rclavicle -8.69683e-014 -2.54444e-014
rhumerus -168.11 -24.0338 96.9032
rradius 10.7325
rwrist 105.477
rhand -26.3393 22.2674
rfingers 7.12502
rthumb 0.218064 -7.71223
lclavicle -8.69683e-014 -2.54444e-014
lhumerus -28.224 72.6838 66.9476
lradius 19.2998
lwrist 18.2419
lhand -1.77825 19.0647
lfingers 7.12502
lthumb 23.8861 47.5993
rfemur -59.0958 10.3419 15.5779
rtibia 44.0711
rfoot -26.6015 -32.3234
rtoes 28.0435
lfemur -34.8929 -4.8762 -26.2392
ltibia 35.5577
lfoot -29.4196 21.1556
ltoes -0.0932017
34
root 3.36416 16.8203 12.3668 24.5004 -46.8554 -2.63452
lowerback -3.05461 -3.06869 -2.76057
upperback -8.66465 -4.28271 1.08169
thorax -7.05946 -1.98503 2.80483
lowerneck -5.47351 -10.808 -12.6348
upperneck 35.7019 -21.0849 14.5335
head 17.0884 -9.65227 4.74981
rclavicle -9.50936e-014 -5.96354e-014
rhumerus -168.824 -22.7325 96.3014
rradius 10.8248
rwrist 106.696
rhand -27.0916 22.8515
rfingers 7.12502
rthumb -0.508588 -7.12761
lclavicle -9.50936e-014 -5.96354e-014
lhumerus -29.7617 74.2077 65.7298
lradius 18.6776
lwrist 16.2601
lhand -2.22348 19.0188
lfingers 7.12502
lthumb 23.459 47.6086
rfemur -58.5909 10.5796 15.1245
rtibia 44.0594
rfoot -29.7469 -31.5282
rtoes 31.5797
lfemur -35.474 -4.37313 -25.8997
ltibia 35.7212
lfoot -30.4082 21.0598
ltoes 2.90877
35
root 3.38329 16.8269 12.2965 25.1332 -48.3821 -3.28466
lowerback -3.21689 -3.06377 -2.60787
upperback -8.61231 -4.26089 1.30622
thorax -6.90363 -1.98231 2.94119
lowerneck -5.84269 -10.5753 -12.4255
upperneck 35.8318 -20.8039 14.5484
head 17.1584 -9.49314 4.7664
rclavicle -8.3415e-014 2.34566e-014
rhumerus -169.403 -22.0391 95.4105
rradius 10.3842
rwrist 107.043
rhand -28.3834 23.108
rfingers 7.12502
rthumb -1.75624 -6.86452
lclavicle -8.3415e-014 2.34566e-014
lhumerus -25.473 70.4845 71.4364
lradius 20.4195
lwrist 19.6309
lhand -3.42756 21.2128
lfingers 7.12502
lthumb 22.3036 49.9456
rfemur -57.9931 11.1251 14.5522
rtibia 43.9673
rfoot -32.4835 -30.8797
rtoes 34.9091
lfemur -35.9558 -3.86439 -25.5537
ltibia 35.9243
lfoot -31.434 21.1666
ltoes 5.47847
36
root 3.40307 16.8313 12.2266 25.4896 -49.9612 -3.66227
lowerback -3.19898 -2.97132 -2.66186
upperback -8.58935 -4.13219 1.47337
thorax -6.88238 -1.91064 3.1437
lowerneck -5.80575 -10.5226 -12.6725
upperneck 35.6311 -20.7435 14.7511
head 17.0991 -9.49391 4.90456
rclavicle 1.61264e-014 -3.57812e-015
rhumerus -170.299 -20.853 94.7532
rradius 11.028
rwrist 107.516
rhand -29.0869 24.14
rfingers 7.12502
rthumb -2.43568 -5.82581
lclavicle 1.61264e-014 -3.57812e-015
lhumerus -22.8021 67.75 74.9971
lradius 20.5434
lwrist 21.2959
lhand -4.5511 22.7995
lfingers 7.12502
lthumb 21.2247 51.6575
rfemur -57.3498 11.2073 14.1331
rtibia 43.8433
rfoot -33.0763 -31.8987
rtoes 34.0517
lfemur -36.318 -3.44901 -25.4306
ltibia 36.1137
lfoot -32.3178 21.6077
ltoes 7.11567
37
root 3.42618 16.8413 12.1641 26.1147 -51.2164 -4.25353
lowerback -3.24105 -2.7922 -2.30589
upperback -8.70026 -3.88535 1.66346
thorax -7.00404 -1.80353 3.14337
lowerneck -5.42827 -10.5169 -13.1729
upperneck 35.3589 -20.8137 15.1427
head 17.0224 -9.58811 5.16063
rclavicle -4.86774e-014 -2.90226e-014
rhumerus -170.024 -21.42 93.6611
rradius 10.1086
rwrist 106.124
rhand -30.3295 24.5726
rfingers 7.12502
rthumb -3.6357 -5.37614
lclavicle -4.86774e-014 -2.90226e-014
lhumerus -22.5354 66.6024 76.9772
lradius 22.5393
lwrist 20.7559
lhand -4.80502 25.6001
lfingers 7.12502
lthumb 20.9807 54.4853
rfemur -56.7059 10.7783 14.06
rtibia 43.6925
rfoot -33.2168 -33.0312
rtoes 34.5639
lfemur -36.7323 -3.56354 -25.0007
ltibia 36.2683
lfoot -33.2544 22.3325
ltoes 8.42933
38
root 3.44646 16.8521 12.1002 26.7561 -52.4878 -4.79425
lowerback -3.39035 -2.58737 -2.00763
upperback -8.78757 -3.60353 1.82979
thorax -7.03828 -1.67876 3.14174
lowerneck -5.04811 -10.6578 -13.4772
upperneck 35.0718 -21.0024 15.2056
head 16.8721 -9.7311 5.2046
rclavicle 3.96078e-014 -6.12257e-014
rhumerus -170.729 -18.5271 93.5774
rradius 10.7515
rwrist 108.091
rhand -31.341 25.6117
rfingers 7.12502
rthumb -4.6124 -4.31804
lclavicle 3.96078e-014 -6.12257e-014
lhumerus -21.423 64.5313 79.628
lradius 24.3602
lwrist 20.6435
lhand -4.85417 28.1885
lfingers 7.12502
lthumb 20.9335 57.0789
rfemur -56.1225 10.3981 13.8043
rtibia 43.5567
rfoot -34.0346 -33.1679
rtoes 37.7193
lfemur -37.1747 -3.73741 -24.5774
ltibia 36.3854
lfoot -34.0497 23.1916
ltoes 9.27031
39
root 3.46146 16.8624 12.0347 27.0619 -53.9641 -5.04475
lowerback -3.53729 -2.46964 -2.04289
upperback -8.71502 -3.43973 1.93712
thorax -6.87793 -1.59608 3.25931
lowerneck -5.52983 -11.0682 -11.4532
upperneck 35.0884 -21.2302 13.4488
head 16.4011 -9.6926 4.00894
rclavicle 4.59441e-014 3.06128e-014
rhumerus -171.228 -17.3228 92.9528
rradius 10.7745
rwrist 108.481
rhand -32.1671 26.4981
rfingers 7.12502
rthumb -5.41002 -3.41289
lclavicle 4.59441e-014 3.06128e-014
lhumerus -17.4358 59.9924 83.0256
lradius 21.5069
lwrist 22.8327
lhand -4.9806 29.0365
lfingers 7.12502
lthumb 20.812 57.9403
rfemur -55.5193 9.94184 13.3806
rtibia 43.5967
rfoot -35.2206 -32.9282
rtoes 38.759
lfemur -37.3695 -3.49794 -24.5131
ltibia 36.3189
lfoot -34.6748 23.7456
ltoes 10.3469
40
root 3.47743 16.872 11.9704 27.5732 -55.3281 -5.53137
lowerback -3.73376 -2.33416 -1.81495
upperback -8.60109 -3.24928 2.03156
thorax -6.66035 -1.51877 3.21253
lowerneck -5.84102 -11.0421 -11.2162
upperneck 35.1543 -21.2189 13.3633
head 16.4567 -9.64951 3.91588
rclavicle -2.32081e-014 -4.77083e-015
rhumerus -171.731 -16.2445 92.1362
rradius 10.6438
rwrist 108.838
rhand -33.376 27.3586
rfingers 7.12502
rthumb -6.57722 -2.51928
lclavicle -2.32081e-014 -4.77083e-015
lhumerus -15.8993 58.3313 85.0982
lradius 21.3512
lwrist 22.2739
lhand -4.4354 29.0172
lfingers 7.12502
lthumb 21.3358 57.8626
rfemur -54.8478 9.33399 13.1977
rtibia 43.5257
rfoot -35.8432 -33.5745
rtoes 37.5269
lfemur -37.6315 -2.78107 -24.4466
ltibia 36.3734
lfoot -35.2898 23.5989
ltoes 12.1251
41
root 3.49639 16.9085 11.9089 27.8947 -56.7326 -5.74056
lowerback -3.95661 -2.10343 -1.67721
upperback -8.55227 -2.93696 2.07602
thorax -6.50457 -1.375 3.16512
lowerneck -5.79537 -11.0539 -11.539
upperneck 35.001 -21.2788 13.6289
head 16.4738 -9.69744 4.06709
rclavicle -2.16054e-014 -1.31198e-014
rhumerus -172.159 -14.3611 91.653
rradius 10.7692
rwrist 110.041
rhand -34.777 28.5164
rfingers 7.12502
rthumb -7.92953 -1.31491
lclavicle -2.16054e-014 -1.31198e-014
lhumerus -14.7177 56.5929 87.1245
lradius 20.9039
lwrist 21.5511
lhand -3.72931 27.6507
lfingers 7.12502
lthumb 22.0139 56.4179
rfemur -53.8242 11.5544 10.3135
rtibia 43.6033
rfoot -46.7854 -23.842
rtoes 49.8202
lfemur -37.8225 -1.99492 -24.6067
ltibia 36.2914
lfoot -35.6108 23.7403
ltoes 12.772
42
root 3.50522 16.8848 11.8509 28.3363 -58.2143 -6.12275
lowerback -4.13968 -1.80978 -1.48517
upperback -8.53369 -2.54498 2.0668
thorax -6.41286 -1.19525 3.03525
lowerneck -5.52129 -10.8803 -12.1096
upperneck 34.7957 -21.2197 14.3653
head 16.5118 -9.70511 4.50667
rclavicle 6.1586e-014 8.74653e-015
rhumerus -172.407 -13.378 90.9185
rradius 11.0208
rwrist 110.138
rhand -35.386 29.3563
rfingers 7.12502
rthumb -8.51732 -0.451883
lclavicle 6.1586e-014 8.74653e-015
lhumerus -13.8613 55.087 88.6752
lradius 20.4586
lwrist 19.9342
lhand -4.62694 26.3208
lfingers 7.12502
lthumb 21.1518 55.1869
rfemur -53.6837 8.86564 11.87
rtibia 43.3871
rfoot -37.7386 -34.6367
rtoes 38.2441
lfemur -38.0635 -1.70008 -24.5602
ltibia 36.3772
lfoot -36.3299 24.3705
ltoes 12.9035
